# xmcd
#
# Track frame offsets:
#	150
#	13202
#	28255
#	56804
#
# Disc length: 2465 seconds
#
# Revision: 1
# Processed by: cddbd v1.5.1PL0 Copyright (c) Steve Scherf et al.
# Submitted via: audiograbber 1.83.01
#
DISCID=33099f04
DTITLE=Annett Lousian - Das groﬂe Erwachen
DYEAR=2005
DGENRE=
TTITLE0=Das groﬂe Erwachen
TTITLE1=Beerdigung
TTITLE2=Wo ist das Problem?
TTITLE3=Daten-CD
EXTD=
EXTT0=
EXTT1=
EXTT2=
EXTT3=
PLAYORDER=
